{"accessors":{"accessor_21":{"bufferView":"bufferView_56","byteOffset":144,"byteStride":0,"componentType":5123,"count":2454,"type":"SCALAR"},"accessor_23":{"bufferView":"bufferView_57","byteOffset":2304,"byteStride":12,"componentType":5126,"count":2454,"max":[0.160871,0.0895655,0.0644703],"min":[-0.151656,-0.0905916,-0.102438],"type":"VEC3"},"accessor_25":{"bufferView":"bufferView_57","byteOffset":31752,"byteStride":12,"componentType":5126,"count":2454,"max":[0.996872,0.992327,0.998881],"min":[-0.99269,-0.999322,-0.999442],"type":"VEC3"},"accessor_27":{"bufferView":"bufferView_57","byteOffset":61200,"byteStride":8,"componentType":5126,"count":2454,"max":[5.9888,7.27376],"min":[-5.86264,-4.19333],"type":"VEC2"},"accessor_48":{"bufferView":"bufferView_56","byteOffset":0,"byteStride":0,"componentType":5123,"count":72,"type":"SCALAR"},"accessor_50":{"bufferView":"bufferView_57","byteOffset":0,"byteStride":12,"componentType":5126,"count":72,"max":[-0.0248183,0.0737006,0.0563245],"min":[-0.151656,-0.0526364,-0.0195529],"type":"VEC3"},"accessor_52":{"bufferView":"bufferView_57","byteOffset":864,"byteStride":12,"componentType":5126,"count":72,"max":[-0.246619,0.886841,0.966065],"min":[-0.989424,-0.896814,-0.955062],"type":"VEC3"},"accessor_54":{"bufferView":"bufferView_57","byteOffset":1728,"byteStride":8,"componentType":5126,"count":72,"max":[5.88198,6.62149],"min":[-6.46457,-4.85682],"type":"VEC2"}},"animations":{},"asset":{"generator":"collada2gltf@","premultipliedAlpha":true,"profile":"WebGL 1.0.2","version":0.8},"bufferViews":{"bufferView_56":{"buffer":"model","byteLength":5052,"byteOffset":0,"target":34963},"bufferView_57":{"buffer":"model","byteLength":80832,"byteOffset":5052,"target":34962}},"buffers":{"model":{"byteLength":85884,"type":"arraybuffer","uri":"data:application/octet-stream;base64,"}},"images":{"ID22":{"uri":"data:image/jpeg;base64,"},"ID9":{"uri":"data:image/jpeg;base64,"}},"materials":{"ID21":{"instanceTechnique":{"technique":"technique0","values":{"diffuse":"texture_ID22"}},"name":"astnt1_2"},"ID8":{"instanceTechnique":{"technique":"technique0","values":{"diffuse":"texture_ID9"}},"name":"astnt1_1"}},"meshes":{"ID19":{"name":"ID19","primitives":[{"attributes":{"NORMAL":"accessor_52","POSITION":"accessor_50","TEXCOORD_0":"accessor_54"},"indices":"accessor_48","material":"ID21","primitive":4}]},"ID6":{"name":"ID6","primitives":[{"attributes":{"NORMAL":"accessor_25","POSITION":"accessor_23","TEXCOORD_0":"accessor_27"},"indices":"accessor_21","material":"ID8","primitive":4}]}},"nodes":{"ID2":{"children":["ID3"],"matrix":[1,0,0,0,0,1,0,0,0,0,1,0,-0.143454,0.00233172,0.0267386,1],"name":"instance_0"},"ID3":{"children":["ID4"],"matrix":[1,0,0,0,0,1,0,0,0,0,1,0,0,0,0,1],"name":"skp59DA"},"ID4":{"children":["ID5"],"matrix":[1,0,0,0,0,1,0,0,0,0,1,0,0,0,0,1],"name":"instance_1"},"ID5":{"children":[],"matrix":[1,0,0,0,0,1,0,0,0,0,1,0,0,0,0,1],"meshes":["ID6","ID19"],"name":"astronaut_"},"node_0":{"children":["ID2"],"matrix":[1,0,0,0,0,1,0,0,0,0,1,0,0,0,0,1],"name":"SketchUp"},"node_5":{"children":["node_0"],"matrix":[1,0,0,0,0,0,-1,0,0,1,0,0,0,0,0,1],"name":"Y_UP_Transform"}},"programs":{"program_0":{"attributes":["a_normal","a_position","a_texcoord0"],"fragmentShader":"model0FS","vertexShader":"model0VS"}},"samplers":{"sampler_0":{"magFilter":9729,"minFilter":9729,"wrapS":10497,"wrapT":10497}},"scene":"defaultScene","scenes":{"defaultScene":{"nodes":["node_5"]}},"shaders":{"model0FS":{"type":35632,"uri":"data:text/plain;base64,"},"model0VS":{"type":35633,"uri":"data:text/plain;base64,"}},"skins":{},"techniques":{"technique0":{"parameters":{"diffuse":{"type":35678},"modelViewMatrix":{"semantic":"MODELVIEW","type":35676},"normal":{"semantic":"NORMAL","type":35665},"normalMatrix":{"semantic":"MODELVIEWINVERSETRANSPOSE","type":35675},"position":{"semantic":"POSITION","type":35665},"projectionMatrix":{"semantic":"PROJECTION","type":35676},"texcoord0":{"semantic":"TEXCOORD_0","type":35664}},"pass":"defaultPass","passes":{"defaultPass":{"details":{"commonProfile":{"extras":{"doubleSided":false},"lightingModel":"Lambert","parameters":["diffuse","modelViewMatrix","normalMatrix","projectionMatrix"],"texcoordBindings":{"diffuse":"TEXCOORD_0"}},"type":"COLLADA-1.4.1/commonProfile"},"instanceProgram":{"attributes":{"a_normal":"normal","a_position":"position","a_texcoord0":"texcoord0"},"program":"program_0","uniforms":{"u_diffuse":"diffuse","u_modelViewMatrix":"modelViewMatrix","u_normalMatrix":"normalMatrix","u_projectionMatrix":"projectionMatrix"}},"states":{"enable":[2884,2929]}}}}},"textures":{"texture_ID22":{"format":6408,"internalFormat":6408,"sampler":"sampler_0","source":"ID22","target":3553,"type":5121},"texture_ID9":{"format":6408,"internalFormat":6408,"sampler":"sampler_0","source":"ID9","target":3553,"type":5121}}}