{"accessors":{"accessor_16":{"bufferView":"bufferView_62","byteOffset":948,"byteStride":0,"componentType":5123,"count":1524,"type":"SCALAR"},"accessor_18":{"bufferView":"bufferView_63","byteOffset":7152,"byteStride":12,"componentType":5126,"count":768,"max":[0.025956,-0.049325,0.0266817],"min":[-0.0305928,-0.165695,-0.0284383],"type":"VEC3"},"accessor_20":{"bufferView":"bufferView_63","byteOffset":16368,"byteStride":12,"componentType":5126,"count":768,"max":[1,1,1],"min":[-1,-1,-1],"type":"VEC3"},"accessor_36":{"bufferView":"bufferView_62","byteOffset":0,"byteStride":0,"componentType":5123,"count":276,"type":"SCALAR"},"accessor_38":{"bufferView":"bufferView_63","byteOffset":0,"byteStride":12,"componentType":5126,"count":176,"max":[0.0175818,0.178215,0.019232],"min":[-0.0229066,-0.178215,-0.019232],"type":"VEC3"},"accessor_40":{"bufferView":"bufferView_63","byteOffset":2112,"byteStride":12,"componentType":5126,"count":176,"max":[0.916657,1,0.930547],"min":[-0.916657,-1,-0.930547],"type":"VEC3"},"accessor_56":{"bufferView":"bufferView_62","byteOffset":552,"byteStride":0,"componentType":5123,"count":198,"type":"SCALAR"},"accessor_58":{"bufferView":"bufferView_63","byteOffset":4224,"byteStride":12,"componentType":5126,"count":122,"max":[0.077884,0.171554,0.0346108],"min":[-0.077884,0.102333,-0.0346108],"type":"VEC3"},"accessor_60":{"bufferView":"bufferView_63","byteOffset":5688,"byteStride":12,"componentType":5126,"count":122,"max":[1,0.923879,0.92388],"min":[-1,-0.92388,-0.92388],"type":"VEC3"}},"animations":{},"asset":{"generator":"collada2gltf@","premultipliedAlpha":true,"profile":"WebGL 1.0.2","version":0.8},"bufferViews":{"bufferView_62":{"buffer":"model","byteLength":3996,"byteOffset":0,"target":34963},"bufferView_63":{"buffer":"model","byteLength":25584,"byteOffset":3996,"target":34962}},"buffers":{"model":{"byteLength":29580,"type":"arraybuffer","uri":"data:application/octet-stream;base64,"}},"materials":{"ID6":{"instanceTechnique":{"technique":"technique0","values":{"diffuse":[0.25098,0.25098,0.25098,1]}},"name":"__auto_"}},"meshes":{"ID12":{"name":"ID12","primitives":[{"attributes":{"NORMAL":"accessor_40","POSITION":"accessor_38"},"indices":"accessor_36","material":"ID6","primitive":4}]},"ID18":{"name":"ID18","primitives":[{"attributes":{"NORMAL":"accessor_60","POSITION":"accessor_58"},"indices":"accessor_56","material":"ID6","primitive":4}]},"ID4":{"name":"ID4","primitives":[{"attributes":{"NORMAL":"accessor_20","POSITION":"accessor_18"},"indices":"accessor_16","material":"ID6","primitive":4}]}},"nodes":{"ID2":{"children":["ID3"],"matrix":[1,0,0,0,0,1,0,0,0,0,1,0,-0.01,0,0,1],"name":"instance_0"},"ID3":{"children":[],"matrix":[1,0,0,0,0,1,0,0,0,0,1,0,0,0,0,1],"meshes":["ID4","ID12","ID18"],"name":"skp4ED5"},"node_0":{"children":["ID2"],"matrix":[1,0,0,0,0,1,0,0,0,0,1,0,0,0,0,1],"name":"SketchUp"},"node_3":{"children":["node_0"],"matrix":[1,0,0,0,0,0,-1,0,0,1,0,0,0,0,0,1],"name":"Y_UP_Transform"}},"programs":{"program_0":{"attributes":["a_normal","a_position"],"fragmentShader":"model0FS","vertexShader":"model0VS"}},"scene":"defaultScene","scenes":{"defaultScene":{"nodes":["node_3"]}},"shaders":{"model0FS":{"type":35632,"uri":"data:text/plain;base64,"},"model0VS":{"type":35633,"uri":"data:text/plain;base64,"}},"skins":{},"techniques":{"technique0":{"parameters":{"diffuse":{"type":35666},"modelViewMatrix":{"semantic":"MODELVIEW","type":35676},"normal":{"semantic":"NORMAL","type":35665},"normalMatrix":{"semantic":"MODELVIEWINVERSETRANSPOSE","type":35675},"position":{"semantic":"POSITION","type":35665},"projectionMatrix":{"semantic":"PROJECTION","type":35676}},"pass":"defaultPass","passes":{"defaultPass":{"details":{"commonProfile":{"extras":{"doubleSided":false},"lightingModel":"Lambert","parameters":["diffuse","modelViewMatrix","normalMatrix","projectionMatrix"]},"type":"COLLADA-1.4.1/commonProfile"},"instanceProgram":{"attributes":{"a_normal":"normal","a_position":"position"},"program":"program_0","uniforms":{"u_diffuse":"diffuse","u_modelViewMatrix":"modelViewMatrix","u_normalMatrix":"normalMatrix","u_projectionMatrix":"projectionMatrix"}},"states":{"enable":[2884,2929]}}}}}}