{"accessors":{"accessor_100":{"bufferView":"bufferView_583","byteOffset":107688,"byteStride":12,"componentType":5126,"count":852,"max":[0.927311,0.996123,0.994955],"min":[-0.982675,-0.996124,-0.957835],"type":"VEC3"},"accessor_116":{"bufferView":"bufferView_582","byteOffset":11004,"byteStride":0,"componentType":5123,"count":852,"type":"SCALAR"},"accessor_118":{"bufferView":"bufferView_583","byteOffset":117912,"byteStride":12,"componentType":5126,"count":852,"max":[-19.6369,0.776496,-1.89556],"min":[-20.4769,0.545744,-2.30855],"type":"VEC3"},"accessor_120":{"bufferView":"bufferView_583","byteOffset":128136,"byteStride":12,"componentType":5126,"count":852,"max":[0.927312,0.996124,0.994955],"min":[-0.982675,-0.996124,-0.957836],"type":"VEC3"},"accessor_136":{"bufferView":"bufferView_582","byteOffset":12708,"byteStride":0,"componentType":5123,"count":132,"type":"SCALAR"},"accessor_138":{"bufferView":"bufferView_583","byteOffset":138360,"byteStride":12,"componentType":5126,"count":132,"max":[-20.0223,2.91277,0.285999],"min":[-21.8418,2.06263,-0.312786],"type":"VEC3"},"accessor_140":{"bufferView":"bufferView_583","byteOffset":139944,"byteStride":12,"componentType":5126,"count":132,"max":[0.939426,0.927184,0.999962],"min":[-0.927181,-0.927185,-0.999977],"type":"VEC3"},"accessor_156":{"bufferView":"bufferView_582","byteOffset":12972,"byteStride":0,"componentType":5123,"count":132,"type":"SCALAR"},"accessor_158":{"bufferView":"bufferView_583","byteOffset":141528,"byteStride":12,"componentType":5126,"count":132,"max":[-20.0223,0.285999,-2.06263],"min":[-21.8418,-0.312786,-2.91277],"type":"VEC3"},"accessor_16":{"bufferView":"bufferView_582","byteOffset":13500,"byteStride":0,"componentType":5123,"count":864,"type":"SCALAR"},"accessor_160":{"bufferView":"bufferView_583","byteOffset":143112,"byteStride":12,"componentType":5126,"count":132,"max":[0.939426,0.999962,0.927185],"min":[-0.927181,-0.999977,-0.927184],"type":"VEC3"},"accessor_176":{"bufferView":"bufferView_582","byteOffset":13236,"byteStride":0,"componentType":5123,"count":132,"type":"SCALAR"},"accessor_178":{"bufferView":"bufferView_583","byteOffset":144696,"byteStride":12,"componentType":5126,"count":132,"max":[-20.0223,-2.06263,0.312786],"min":[-21.8418,-2.91277,-0.285999],"type":"VEC3"},"accessor_18":{"bufferView":"bufferView_583","byteOffset":147864,"byteStride":12,"componentType":5126,"count":672,"max":[-19.4547,2.79984,2.79984],"min":[-22.0862,-2.79984,-2.79984],"type":"VEC3"},"accessor_180":{"bufferView":"bufferView_583","byteOffset":146280,"byteStride":12,"componentType":5126,"count":132,"max":[0.939426,0.927185,0.999977],"min":[-0.927181,-0.927184,-0.999962],"type":"VEC3"},"accessor_196":{"bufferView":"bufferView_582","byteOffset":15228,"byteStride":0,"componentType":5123,"count":1140,"type":"SCALAR"},"accessor_198":{"bufferView":"bufferView_583","byteOffset":163992,"byteStride":12,"componentType":5126,"count":958,"max":[-19.4558,1.95206,1.9431],"min":[-22.6207,-1.93414,-1.9431],"type":"VEC3"},"accessor_20":{"bufferView":"bufferView_583","byteOffset":155928,"byteStride":12,"componentType":5126,"count":672,"max":[1,0.94132,0.941991],"min":[-1,-0.942504,-0.941991],"type":"VEC3"},"accessor_200":{"bufferView":"bufferView_583","byteOffset":175488,"byteStride":12,"componentType":5126,"count":958,"max":[1,0.964021,0.963972],"min":[-1,-0.963908,-0.963972],"type":"VEC3"},"accessor_216":{"bufferView":"bufferView_582","byteOffset":17508,"byteStride":0,"componentType":5123,"count":432,"type":"SCALAR"},"accessor_218":{"bufferView":"bufferView_583","byteOffset":186984,"byteStride":12,"componentType":5126,"count":210,"max":[-9.71614,1.86316,1.8542],"min":[-19.4697,-1.84524,-1.8542],"type":"VEC3"},"accessor_220":{"bufferView":"bufferView_583","byteOffset":189504,"byteStride":12,"componentType":5126,"count":210,"max":[1,0.991445,0.991445],"min":[-1,-0.991445,-0.991445],"type":"VEC3"},"accessor_236":{"bufferView":"bufferView_582","byteOffset":18372,"byteStride":0,"componentType":5123,"count":432,"type":"SCALAR"},"accessor_238":{"bufferView":"bufferView_583","byteOffset":192024,"byteStride":12,"componentType":5126,"count":230,"max":[-1.59236,1.86316,1.8542],"min":[-9.72035,-1.84524,-1.8542],"type":"VEC3"},"accessor_240":{"bufferView":"bufferView_583","byteOffset":194784,"byteStride":12,"componentType":5126,"count":230,"max":[1,0.991445,0.991445],"min":[-1,-0.991445,-0.991445],"type":"VEC3"},"accessor_256":{"bufferView":"bufferView_582","byteOffset":19236,"byteStride":0,"componentType":5123,"count":432,"type":"SCALAR"},"accessor_258":{"bufferView":"bufferView_583","byteOffset":197544,"byteStride":12,"componentType":5126,"count":214,"max":[6.5339,1.86316,1.8542],"min":[-1.59411,-1.84524,-1.8542],"type":"VEC3"},"accessor_260":{"bufferView":"bufferView_583","byteOffset":200112,"byteStride":12,"componentType":5126,"count":214,"max":[1,0.991445,0.991445],"min":[-1,-0.991445,-0.991445],"type":"VEC3"},"accessor_276":{"bufferView":"bufferView_582","byteOffset":20100,"byteStride":0,"componentType":5123,"count":1650,"type":"SCALAR"},"accessor_278":{"bufferView":"bufferView_583","byteOffset":202680,"byteStride":12,"componentType":5126,"count":1540,"max":[15.0714,1.86316,1.8542],"min":[6.53534,-1.84524,-1.8542],"type":"VEC3"},"accessor_280":{"bufferView":"bufferView_583","byteOffset":221160,"byteStride":12,"componentType":5126,"count":1540,"max":[0.999998,0.993014,0.991569],"min":[-1,-0.993086,-0.99148],"type":"VEC3"},"accessor_296":{"bufferView":"bufferView_582","byteOffset":23400,"byteStride":0,"componentType":5123,"count":66,"type":"SCALAR"},"accessor_298":{"bufferView":"bufferView_583","byteOffset":239640,"byteStride":12,"componentType":5126,"count":24,"max":[13.7612,0.6858,0.6858],"min":[13.7612,-0.6858,-0.6858],"type":"VEC3"},"accessor_300":{"bufferView":"bufferView_583","byteOffset":239928,"byteStride":12,"componentType":5126,"count":24,"max":[-1,0,0],"min":[-1,0,0],"type":"VEC3"},"accessor_316":{"bufferView":"bufferView_582","byteOffset":23532,"byteStride":0,"componentType":5123,"count":642,"type":"SCALAR"},"accessor_318":{"bufferView":"bufferView_583","byteOffset":240216,"byteStride":12,"componentType":5126,"count":596,"max":[17.8368,1.86316,1.8542],"min":[14.6618,-1.84524,-1.8542],"type":"VEC3"},"accessor_320":{"bufferView":"bufferView_583","byteOffset":247368,"byteStride":12,"componentType":5126,"count":596,"max":[0.998645,0.991445,0.991445],"min":[-1,-0.991445,-0.991445],"type":"VEC3"},"accessor_336":{"bufferView":"bufferView_582","byteOffset":0,"byteStride":0,"componentType":5123,"count":144,"type":"SCALAR"},"accessor_338":{"bufferView":"bufferView_583","byteOffset":0,"byteStride":12,"componentType":5126,"count":142,"max":[17.7749,1.76903,1.75854],"min":[17.7688,-1.7504,-1.76089],"type":"VEC3"},"accessor_340":{"bufferView":"bufferView_583","byteOffset":1704,"byteStride":12,"componentType":5126,"count":142,"max":[-0.999898,0.0136897,0.0139544],"min":[-0.999905,-0.0141499,-0.0139358],"type":"VEC3"},"accessor_356":{"bufferView":"bufferView_582","byteOffset":288,"byteStride":0,"componentType":5123,"count":60,"type":"SCALAR"},"accessor_358":{"bufferView":"bufferView_583","byteOffset":3408,"byteStride":12,"componentType":5126,"count":54,"max":[16.7244,-1.33801,-0.695815],"min":[15.5059,-1.87875,-1.37351],"type":"VEC3"},"accessor_36":{"bufferView":"bufferView_582","byteOffset":2580,"byteStride":0,"componentType":5123,"count":132,"type":"SCALAR"},"accessor_360":{"bufferView":"bufferView_583","byteOffset":4056,"byteStride":12,"componentType":5126,"count":54,"max":[1,0.83867,0.83867],"min":[-1,-0.83867,-0.838671],"type":"VEC3"},"accessor_376":{"bufferView":"bufferView_582","byteOffset":408,"byteStride":0,"componentType":5123,"count":66,"type":"SCALAR"},"accessor_378":{"bufferView":"bufferView_583","byteOffset":4704,"byteStride":12,"componentType":5126,"count":65,"max":[17.7688,1.32183,1.31891],"min":[17.7688,-1.31775,-1.32067],"type":"VEC3"},"accessor_38":{"bufferView":"bufferView_583","byteOffset":29256,"byteStride":12,"componentType":5126,"count":132,"max":[-20.0223,0.312786,2.91277],"min":[-21.8418,-0.285999,2.06263],"type":"VEC3"},"accessor_380":{"bufferView":"bufferView_583","byteOffset":5484,"byteStride":12,"componentType":5126,"count":65,"max":[1,0.00000587902,0.00000243514],"min":[1,-0.00000283582,-0.000011758],"type":"VEC3"},"accessor_396":{"bufferView":"bufferView_582","byteOffset":540,"byteStride":0,"componentType":5123,"count":852,"type":"SCALAR"},"accessor_398":{"bufferView":"bufferView_583","byteOffset":6264,"byteStride":12,"componentType":5126,"count":796,"max":[22.6207,1.86316,1.8542],"min":[17.8263,-1.84524,-1.8542],"type":"VEC3"},"accessor_40":{"bufferView":"bufferView_583","byteOffset":30840,"byteStride":12,"componentType":5126,"count":132,"max":[0.939426,0.999977,0.927184],"min":[-0.927181,-0.999962,-0.927186],"type":"VEC3"},"accessor_400":{"bufferView":"bufferView_583","byteOffset":15816,"byteStride":12,"componentType":5126,"count":796,"max":[1,0.99121,0.991211],"min":[-1,-0.991217,-0.991216],"type":"VEC3"},"accessor_416":{"bufferView":"bufferView_582","byteOffset":2244,"byteStride":0,"componentType":5123,"count":84,"type":"SCALAR"},"accessor_418":{"bufferView":"bufferView_583","byteOffset":25368,"byteStride":12,"componentType":5126,"count":82,"max":[20.6275,0.0894773,-0.786775],"min":[20.5283,0.0286479,-0.932848],"type":"VEC3"},"accessor_420":{"bufferView":"bufferView_583","byteOffset":26352,"byteStride":12,"componentType":5126,"count":82,"max":[0.87866,0.923884,0.95106],"min":[-0.87866,-0.923884,-0.951058],"type":"VEC3"},"accessor_436":{"bufferView":"bufferView_582","byteOffset":2412,"byteStride":0,"componentType":5123,"count":84,"type":"SCALAR"},"accessor_438":{"bufferView":"bufferView_583","byteOffset":27336,"byteStride":12,"componentType":5126,"count":80,"max":[20.5118,0.0894773,-0.82437],"min":[20.4126,0.0286479,-0.970442],"type":"VEC3"},"accessor_440":{"bufferView":"bufferView_583","byteOffset":28296,"byteStride":12,"componentType":5126,"count":80,"max":[0.87866,0.923884,0.95106],"min":[-0.878682,-0.923884,-0.95106],"type":"VEC3"},"accessor_456":{"bufferView":"bufferView_582","byteOffset":2844,"byteStride":0,"componentType":5123,"count":84,"type":"SCALAR"},"accessor_458":{"bufferView":"bufferView_583","byteOffset":32424,"byteStride":12,"componentType":5126,"count":84,"max":[20.6275,-0.0321813,-0.786775],"min":[20.5283,-0.0930107,-0.932848],"type":"VEC3"},"accessor_460":{"bufferView":"bufferView_583","byteOffset":33432,"byteStride":12,"componentType":5126,"count":84,"max":[0.87866,0.923884,0.95106],"min":[-0.87866,-0.923884,-0.951058],"type":"VEC3"},"accessor_476":{"bufferView":"bufferView_582","byteOffset":3012,"byteStride":0,"componentType":5123,"count":84,"type":"SCALAR"},"accessor_478":{"bufferView":"bufferView_583","byteOffset":34440,"byteStride":12,"componentType":5126,"count":80,"max":[20.5118,-0.0321813,-0.82437],"min":[20.4126,-0.0930107,-0.970442],"type":"VEC3"},"accessor_480":{"bufferView":"bufferView_583","byteOffset":35400,"byteStride":12,"componentType":5126,"count":80,"max":[0.87866,0.923884,0.95106],"min":[-0.878682,-0.923884,-0.95106],"type":"VEC3"},"accessor_496":{"bufferView":"bufferView_582","byteOffset":3180,"byteStride":0,"componentType":5123,"count":132,"type":"SCALAR"},"accessor_498":{"bufferView":"bufferView_583","byteOffset":36360,"byteStride":12,"componentType":5126,"count":48,"max":[20.813,0.81344,0.805622],"min":[20.813,-0.795731,-0.803549],"type":"VEC3"},"accessor_500":{"bufferView":"bufferView_583","byteOffset":36936,"byteStride":12,"componentType":5126,"count":48,"max":[1,0,0],"min":[-1,0,0],"type":"VEC3"},"accessor_516":{"bufferView":"bufferView_582","byteOffset":3444,"byteStride":0,"componentType":5123,"count":36,"type":"SCALAR"},"accessor_518":{"bufferView":"bufferView_583","byteOffset":37512,"byteStride":12,"componentType":5126,"count":32,"max":[-19.3824,0.185811,2.13424],"min":[-19.7024,-0.150176,1.85288],"type":"VEC3"},"accessor_520":{"bufferView":"bufferView_583","byteOffset":37896,"byteStride":12,"componentType":5126,"count":32,"max":[0.927183,1,0.927183],"min":[-0.927183,-1,-0.927183],"type":"VEC3"},"accessor_536":{"bufferView":"bufferView_582","byteOffset":3516,"byteStride":0,"componentType":5123,"count":36,"type":"SCALAR"},"accessor_538":{"bufferView":"bufferView_583","byteOffset":38280,"byteStride":12,"componentType":5126,"count":24,"max":[16.7093,0.108727,1.95087],"min":[-19.4556,-0.0910206,1.85518],"type":"VEC3"},"accessor_540":{"bufferView":"bufferView_583","byteOffset":38568,"byteStride":12,"componentType":5126,"count":24,"max":[1,1,1],"min":[-1,-1,-1],"type":"VEC3"},"accessor_556":{"bufferView":"bufferView_582","byteOffset":3588,"byteStride":0,"componentType":5123,"count":576,"type":"SCALAR"},"accessor_558":{"bufferView":"bufferView_583","byteOffset":38856,"byteStride":12,"componentType":5126,"count":364,"max":[17.8242,1.87409,1.88276],"min":[17.7259,-1.87762,-2.3125],"type":"VEC3"},"accessor_56":{"bufferView":"bufferView_582","byteOffset":5892,"byteStride":0,"componentType":5123,"count":852,"type":"SCALAR"},"accessor_560":{"bufferView":"bufferView_583","byteOffset":43224,"byteStride":12,"componentType":5126,"count":364,"max":[1,0.991445,0.991445],"min":[-1,-0.991445,-0.99997],"type":"VEC3"},"accessor_576":{"bufferView":"bufferView_582","byteOffset":4740,"byteStride":0,"componentType":5123,"count":576,"type":"SCALAR"},"accessor_578":{"bufferView":"bufferView_583","byteOffset":47592,"byteStride":12,"componentType":5126,"count":374,"max":[-12.3405,2.00354,2.00354],"min":[-12.6492,-2.00354,-2.47729],"type":"VEC3"},"accessor_58":{"bufferView":"bufferView_583","byteOffset":56568,"byteStride":12,"componentType":5126,"count":852,"max":[-19.6369,-0.165131,-1.97108],"min":[-20.4769,-0.360235,-2.39011],"type":"VEC3"},"accessor_580":{"bufferView":"bufferView_583","byteOffset":52080,"byteStride":12,"componentType":5126,"count":374,"max":[1,0.991445,0.991445],"min":[-1,-0.991445,-0.99997],"type":"VEC3"},"accessor_60":{"bufferView":"bufferView_583","byteOffset":66792,"byteStride":12,"componentType":5126,"count":852,"max":[0.927314,0.999558,0.993676],"min":[-0.982675,-0.999558,-0.960051],"type":"VEC3"},"accessor_76":{"bufferView":"bufferView_582","byteOffset":7596,"byteStride":0,"componentType":5123,"count":852,"type":"SCALAR"},"accessor_78":{"bufferView":"bufferView_583","byteOffset":77016,"byteStride":12,"componentType":5126,"count":852,"max":[-19.6369,0.409786,-1.97351],"min":[-20.4769,0.179034,-2.3865],"type":"VEC3"},"accessor_80":{"bufferView":"bufferView_583","byteOffset":87240,"byteStride":12,"componentType":5126,"count":852,"max":[0.92731,0.996123,0.994956],"min":[-0.982675,-0.996297,-0.997178],"type":"VEC3"},"accessor_96":{"bufferView":"bufferView_582","byteOffset":9300,"byteStride":0,"componentType":5123,"count":852,"type":"SCALAR"},"accessor_98":{"bufferView":"bufferView_583","byteOffset":97464,"byteStride":12,"componentType":5126,"count":852,"max":[-19.6369,0.593141,-1.93454],"min":[-20.4769,0.362389,-2.34753],"type":"VEC3"}},"animations":{},"asset":{"generator":"collada2gltf@","premultipliedAlpha":true,"profile":"WebGL 1.0.2","version":0.8},"bufferViews":{"bufferView_582":{"buffer":"model","byteLength":24816,"byteOffset":0,"target":34963},"bufferView_583":{"buffer":"model","byteLength":254520,"byteOffset":24816,"target":34962}},"buffers":{"model":{"byteLength":279336,"type":"arraybuffer","uri":"data:application/octet-stream;base64,"}},"materials":{"ID8":{"instanceTechnique":{"technique":"technique0","values":{"diffuse":[0.996078,0.945098,0.886274,1]}},"name":"srb_all"}},"meshes":{"ID104":{"name":"ID104","primitives":[{"attributes":{"NORMAL":"accessor_340","POSITION":"accessor_338"},"indices":"accessor_336","material":"ID8","primitive":4}]},"ID110":{"name":"ID110","primitives":[{"attributes":{"NORMAL":"accessor_360","POSITION":"accessor_358"},"indices":"accessor_356","material":"ID8","primitive":4}]},"ID116":{"name":"ID116","primitives":[{"attributes":{"NORMAL":"accessor_380","POSITION":"accessor_378"},"indices":"accessor_376","material":"ID8","primitive":4}]},"ID122":{"name":"ID122","primitives":[{"attributes":{"NORMAL":"accessor_400","POSITION":"accessor_398"},"indices":"accessor_396","material":"ID8","primitive":4}]},"ID128":{"name":"ID128","primitives":[{"attributes":{"NORMAL":"accessor_420","POSITION":"accessor_418"},"indices":"accessor_416","material":"ID8","primitive":4}]},"ID134":{"name":"ID134","primitives":[{"attributes":{"NORMAL":"accessor_440","POSITION":"accessor_438"},"indices":"accessor_436","material":"ID8","primitive":4}]},"ID14":{"name":"ID14","primitives":[{"attributes":{"NORMAL":"accessor_40","POSITION":"accessor_38"},"indices":"accessor_36","material":"ID8","primitive":4}]},"ID140":{"name":"ID140","primitives":[{"attributes":{"NORMAL":"accessor_460","POSITION":"accessor_458"},"indices":"accessor_456","material":"ID8","primitive":4}]},"ID146":{"name":"ID146","primitives":[{"attributes":{"NORMAL":"accessor_480","POSITION":"accessor_478"},"indices":"accessor_476","material":"ID8","primitive":4}]},"ID152":{"name":"ID152","primitives":[{"attributes":{"NORMAL":"accessor_500","POSITION":"accessor_498"},"indices":"accessor_496","material":"ID8","primitive":4}]},"ID158":{"name":"ID158","primitives":[{"attributes":{"NORMAL":"accessor_520","POSITION":"accessor_518"},"indices":"accessor_516","material":"ID8","primitive":4}]},"ID164":{"name":"ID164","primitives":[{"attributes":{"NORMAL":"accessor_540","POSITION":"accessor_538"},"indices":"accessor_536","material":"ID8","primitive":4}]},"ID170":{"name":"ID170","primitives":[{"attributes":{"NORMAL":"accessor_560","POSITION":"accessor_558"},"indices":"accessor_556","material":"ID8","primitive":4}]},"ID176":{"name":"ID176","primitives":[{"attributes":{"NORMAL":"accessor_580","POSITION":"accessor_578"},"indices":"accessor_576","material":"ID8","primitive":4}]},"ID20":{"name":"ID20","primitives":[{"attributes":{"NORMAL":"accessor_60","POSITION":"accessor_58"},"indices":"accessor_56","material":"ID8","primitive":4}]},"ID26":{"name":"ID26","primitives":[{"attributes":{"NORMAL":"accessor_80","POSITION":"accessor_78"},"indices":"accessor_76","material":"ID8","primitive":4}]},"ID32":{"name":"ID32","primitives":[{"attributes":{"NORMAL":"accessor_100","POSITION":"accessor_98"},"indices":"accessor_96","material":"ID8","primitive":4}]},"ID38":{"name":"ID38","primitives":[{"attributes":{"NORMAL":"accessor_120","POSITION":"accessor_118"},"indices":"accessor_116","material":"ID8","primitive":4}]},"ID44":{"name":"ID44","primitives":[{"attributes":{"NORMAL":"accessor_140","POSITION":"accessor_138"},"indices":"accessor_136","material":"ID8","primitive":4}]},"ID50":{"name":"ID50","primitives":[{"attributes":{"NORMAL":"accessor_160","POSITION":"accessor_158"},"indices":"accessor_156","material":"ID8","primitive":4}]},"ID56":{"name":"ID56","primitives":[{"attributes":{"NORMAL":"accessor_180","POSITION":"accessor_178"},"indices":"accessor_176","material":"ID8","primitive":4}]},"ID6":{"name":"ID6","primitives":[{"attributes":{"NORMAL":"accessor_20","POSITION":"accessor_18"},"indices":"accessor_16","material":"ID8","primitive":4}]},"ID62":{"name":"ID62","primitives":[{"attributes":{"NORMAL":"accessor_200","POSITION":"accessor_198"},"indices":"accessor_196","material":"ID8","primitive":4}]},"ID68":{"name":"ID68","primitives":[{"attributes":{"NORMAL":"accessor_220","POSITION":"accessor_218"},"indices":"accessor_216","material":"ID8","primitive":4}]},"ID74":{"name":"ID74","primitives":[{"attributes":{"NORMAL":"accessor_240","POSITION":"accessor_238"},"indices":"accessor_236","material":"ID8","primitive":4}]},"ID80":{"name":"ID80","primitives":[{"attributes":{"NORMAL":"accessor_260","POSITION":"accessor_258"},"indices":"accessor_256","material":"ID8","primitive":4}]},"ID86":{"name":"ID86","primitives":[{"attributes":{"NORMAL":"accessor_280","POSITION":"accessor_278"},"indices":"accessor_276","material":"ID8","primitive":4}]},"ID92":{"name":"ID92","primitives":[{"attributes":{"NORMAL":"accessor_300","POSITION":"accessor_298"},"indices":"accessor_296","material":"ID8","primitive":4}]},"ID98":{"name":"ID98","primitives":[{"attributes":{"NORMAL":"accessor_320","POSITION":"accessor_318"},"indices":"accessor_316","material":"ID8","primitive":4}]}},"nodes":{"ID2":{"children":["ID3"],"matrix":[1,0,0,0,0,1,0,0,0,0,1,0,0,0,0,1],"name":"instance_0"},"ID3":{"children":["ID4"],"matrix":[1,0,0,0,0,1,0,0,0,0,1,0,0,0,0,1],"name":"skp2A89"},"ID4":{"children":["ID5"],"matrix":[1,0,0,0,0,1,0,0,0,0,1,0,0,0,0,1],"name":"instance_1"},"ID5":{"children":[],"matrix":[1,0,0,0,0,1,0,0,0,0,1,0,0,0,0,1],"meshes":["ID6","ID14","ID68","ID74","ID80","ID86","ID92","ID98","ID104","ID110","ID116","ID122","ID20","ID128","ID134","ID140","ID146","ID152","ID158","ID164","ID170","ID176","ID26","ID32","ID38","ID44","ID50","ID56","ID62"],"name":"srb.layer1"},"node_0":{"children":["ID2"],"matrix":[1,0,0,0,0,1,0,0,0,0,1,0,0,0,0,1],"name":"SketchUp"},"node_5":{"children":["node_0"],"matrix":[1,0,0,0,0,0,-1,0,0,1,0,0,0,0,0,1],"name":"Y_UP_Transform"}},"programs":{"program_0":{"attributes":["a_normal","a_position"],"fragmentShader":"model0FS","vertexShader":"model0VS"}},"scene":"defaultScene","scenes":{"defaultScene":{"nodes":["node_5"]}},"shaders":{"model0FS":{"type":35632,"uri":"data:text/plain;base64,"},"model0VS":{"type":35633,"uri":"data:text/plain;base64,"}},"skins":{},"techniques":{"technique0":{"parameters":{"diffuse":{"type":35666},"modelViewMatrix":{"semantic":"MODELVIEW","type":35676},"normal":{"semantic":"NORMAL","type":35665},"normalMatrix":{"semantic":"MODELVIEWINVERSETRANSPOSE","type":35675},"position":{"semantic":"POSITION","type":35665},"projectionMatrix":{"semantic":"PROJECTION","type":35676}},"pass":"defaultPass","passes":{"defaultPass":{"details":{"commonProfile":{"extras":{"doubleSided":false},"lightingModel":"Lambert","parameters":["diffuse","modelViewMatrix","normalMatrix","projectionMatrix"]},"type":"COLLADA-1.4.1/commonProfile"},"instanceProgram":{"attributes":{"a_normal":"normal","a_position":"position"},"program":"program_0","uniforms":{"u_diffuse":"diffuse","u_modelViewMatrix":"modelViewMatrix","u_normalMatrix":"normalMatrix","u_projectionMatrix":"projectionMatrix"}},"states":{"enable":[2884,2929]}}}}}}