{"accessors":{"accessor_38":{"bufferView":"bufferView_49","byteOffset":0,"byteStride":0,"componentType":5123,"count":2454,"type":"SCALAR"},"accessor_41":{"bufferView":"bufferView_49","byteOffset":4908,"byteStride":0,"componentType":5123,"count":72,"type":"SCALAR"},"accessor_43":{"bufferView":"bufferView_50","byteOffset":0,"byteStride":12,"componentType":5126,"count":2526,"max":[6.3335,3.5262,2.5382],"min":[-5.9707,-3.5666,-4.033],"type":"VEC3"},"accessor_45":{"bufferView":"bufferView_50","byteOffset":30312,"byteStride":12,"componentType":5126,"count":2526,"max":[0.99269,0.999322,0.999442],"min":[-0.996872,-0.992327,-0.997393],"type":"VEC3"},"accessor_47":{"bufferView":"bufferView_50","byteOffset":60624,"byteStride":8,"componentType":5126,"count":2526,"max":[0.9787,0.9977],"min":[0.4996,0.6675],"type":"VEC2"}},"animations":{},"asset":{"generator":"collada2gltf@","premultipliedAlpha":true,"profile":"WebGL 1.0.2","version":0.8},"bufferViews":{"bufferView_49":{"buffer":"model","byteLength":5052,"byteOffset":0,"target":34963},"bufferView_50":{"buffer":"model","byteLength":80832,"byteOffset":5052,"target":34962}},"buffers":{"model":{"byteLength":85884,"type":"arraybuffer","uri":"data:application/octet-stream;base64,"}},"cameras":{"camera_0":{"perspective":{"aspect_ratio":1.77778,"xfov":49.1343,"zfar":100,"znear":0.1},"type":"perspective"}},"lights":{"Lamp-light":{"point":{"color":[1,1,1],"constantAttenuation":1,"linearAttenuation":0,"quadraticAttenuation":0.00111109},"type":"point"}},"materials":{"astnt1_1-effect":{"instanceTechnique":{"technique":"technique0","values":{"ambient":[0,0,0,1],"diffuse":[0.467451,0.467451,0.467451,1],"emission":[0,0,0,1],"shininess":50,"specular":[0.44902,0.44902,0.44902,1]}},"name":"astnt1_1"},"astnt1_2-effect":{"instanceTechnique":{"technique":"technique0","values":{"ambient":[0,0,0,1],"diffuse":[0.467451,0.467451,0.467451,1],"emission":[0,0,0,1],"shininess":50,"specular":[0.44902,0.44902,0.44902,1]}},"name":"astnt1_2"}},"meshes":{"astronaut__001-mesh":{"name":"astronaut_.001","primitives":[{"attributes":{"NORMAL":"accessor_45","POSITION":"accessor_43","TEXCOORD_0":"accessor_47"},"indices":"accessor_38","material":"astnt1_1-effect","primitive":4},{"attributes":{"NORMAL":"accessor_45","POSITION":"accessor_43","TEXCOORD_0":"accessor_47"},"indices":"accessor_41","material":"astnt1_2-effect","primitive":4}]}},"nodes":{"Camera":{"camera":"camera_0","children":[],"matrix":[0.685881,0.727634,-0.0108168,0,-0.31737,0.312469,0.895343,0,0.654862,-0.610666,0.445245,0,7.48113,-6.50764,5.34366,1],"name":"Camera"},"Lamp":{"children":[],"light":"Lamp-light","matrix":[-0.290865,0.955171,-0.0551891,0,-0.771101,-0.199883,0.604525,0,0.566393,0.218391,0.794672,0,4.07625,1.00545,5.90386,1],"name":"Lamp"},"astronaut_":{"children":[],"matrix":[0.1,0,0,0,0,0.1,0,0,0,0,0.1,0,0,0,0,1],"meshes":["astronaut__001-mesh"],"name":"astronaut_"},"node_3":{"children":["Camera","Lamp","astronaut_"],"matrix":[1,0,0,0,0,0,-1,0,0,1,0,0,0,0,0,1],"name":"Y_UP_Transform"}},"programs":{"program_0":{"attributes":["a_normal","a_position"],"fragmentShader":"model0FS","vertexShader":"model0VS"}},"scene":"defaultScene","scenes":{"defaultScene":{"nodes":["node_3"]}},"shaders":{"model0FS":{"type":35632,"uri":"data:text/plain;base64,"},"model0VS":{"type":35633,"uri":"data:text/plain;base64,"}},"skins":{},"techniques":{"technique0":{"parameters":{"ambient":{"type":35666},"diffuse":{"type":35666},"emission":{"type":35666},"light0Color":{"type":35665,"value":[1,1,1]},"light0ConstantAttenuation":{"type":5126,"value":1},"light0LinearAttenuation":{"type":5126,"value":0},"light0QuadraticAttenuation":{"type":5126,"value":0.00111109},"light0Transform":{"semantic":"MODELVIEW","source":"Lamp","type":35676},"modelViewMatrix":{"semantic":"MODELVIEW","type":35676},"normal":{"semantic":"NORMAL","type":35665},"normalMatrix":{"semantic":"MODELVIEWINVERSETRANSPOSE","type":35675},"position":{"semantic":"POSITION","type":35665},"projectionMatrix":{"semantic":"PROJECTION","type":35676},"shininess":{"type":5126},"specular":{"type":35666}},"pass":"defaultPass","passes":{"defaultPass":{"details":{"commonProfile":{"extras":{"doubleSided":true},"lightingModel":"Phong","parameters":["ambient","diffuse","emission","light0Color","light0ConstantAttenuation","light0LinearAttenuation","light0QuadraticAttenuation","light0Transform","modelViewMatrix","normalMatrix","projectionMatrix","shininess","specular"]},"type":"COLLADA-1.4.1/commonProfile"},"instanceProgram":{"attributes":{"a_normal":"normal","a_position":"position"},"program":"program_0","uniforms":{"u_ambient":"ambient","u_diffuse":"diffuse","u_emission":"emission","u_light0Color":"light0Color","u_light0ConstantAttenuation":"light0ConstantAttenuation","u_light0LinearAttenuation":"light0LinearAttenuation","u_light0QuadraticAttenuation":"light0QuadraticAttenuation","u_light0Transform":"light0Transform","u_modelViewMatrix":"modelViewMatrix","u_normalMatrix":"normalMatrix","u_projectionMatrix":"projectionMatrix","u_shininess":"shininess","u_specular":"specular"}},"states":{"enable":[2929]}}}}}}